{
	"textures":[{
		"sampler":0,
		"source":0
	},
	{
		"sampler":1,
		"source":1
	},
	{
		"sampler":2,
		"source":2
	},
	{
		"sampler":3,
		"source":3
	},
	{
		"sampler":4,
		"source":4
	},
	{
		"sampler":5,
		"source":5
	}],
	"asset":{
		"version":"2.0",
		"generator":""
	},
	"scenes":[{
		"nodes":[0]
	}],
	"nodes":[{
		"name":"linoleum",
		"children":[1,
		2,
		3]
	},
	{
		"name":"linoleum-Concrete",
		"mesh":0
	},
	{
		"name":"linoleum-RS Standard",
		"mesh":1
	},
	{
		"name":"linoleum-RS Standard",
		"mesh":2
	}],
	"meshes":[{
		"name":"linoleum-Concrete",
		"primitives":[{
			"attributes":{
				"POSITION":1,
				"NORMAL":2,
				"TEXCOORD_0":3
			},
			"indices":0,
			"material":0
		}]
	},
	{
		"name":"linoleum-RS Standard",
		"primitives":[{
			"attributes":{
				"POSITION":5,
				"NORMAL":6,
				"TEXCOORD_0":7
			},
			"indices":4,
			"material":1
		}]
	},
	{
		"name":"linoleum-RS Standard",
		"primitives":[{
			"attributes":{
				"POSITION":9,
				"NORMAL":10,
				"TEXCOORD_0":11
			},
			"indices":8,
			"material":1
		}]
	}],
	"accessors":[{
		"bufferView":0,
		"type":"SCALAR",
		"componentType":5123,
		"count":30,
		"byteOffset":0,
		"min":[0],
		"max":[29]
	},
	{
		"bufferView":1,
		"type":"VEC3",
		"componentType":5126,
		"count":30,
		"byteOffset":0,
		"min":[0.0,
		-0.02500000037252903,
		-1.0],
		"max":[1.0,
		0.02500000037252903,
		1.0]
	},
	{
		"bufferView":1,
		"type":"VEC3",
		"componentType":5126,
		"count":30,
		"byteOffset":12,
		"min":[-1.0,
		-1.0,
		-1.0],
		"max":[1.0,
		0.0,
		1.0]
	},
	{
		"bufferView":1,
		"type":"VEC2",
		"componentType":5126,
		"count":30,
		"byteOffset":24,
		"min":[-1.5,
		-1.5],
		"max":[2.5,
		2.5]
	},
	{
		"bufferView":2,
		"type":"SCALAR",
		"componentType":5123,
		"count":24,
		"byteOffset":0,
		"min":[0],
		"max":[23]
	},
	{
		"bufferView":3,
		"type":"VEC3",
		"componentType":5126,
		"count":24,
		"byteOffset":0,
		"min":[0.0,
		0.02500000037252903,
		-1.0],
		"max":[1.0,
		0.027000000700354577,
		1.0]
	},
	{
		"bufferView":3,
		"type":"VEC3",
		"componentType":5126,
		"count":24,
		"byteOffset":12,
		"min":[-1.0,
		0.0,
		-1.0],
		"max":[1.0,
		0.0,
		1.0]
	},
	{
		"bufferView":3,
		"type":"VEC2",
		"componentType":5126,
		"count":24,
		"byteOffset":24,
		"min":[-0.37663930654525759,
		0.06168033927679062],
		"max":[1.3766393661499024,
		0.9383196830749512]
	},
	{
		"bufferView":4,
		"type":"SCALAR",
		"componentType":5123,
		"count":6,
		"byteOffset":0,
		"min":[0],
		"max":[5]
	},
	{
		"bufferView":5,
		"type":"VEC3",
		"componentType":5126,
		"count":6,
		"byteOffset":0,
		"min":[0.0,
		0.027000000700354577,
		-1.0],
		"max":[1.0,
		0.027000000700354577,
		1.0]
	},
	{
		"bufferView":5,
		"type":"VEC3",
		"componentType":5126,
		"count":6,
		"byteOffset":12,
		"min":[0.0,
		1.0,
		0.0],
		"max":[0.0,
		1.0,
		0.0]
	},
	{
		"bufferView":5,
		"type":"VEC2",
		"componentType":5126,
		"count":6,
		"byteOffset":24,
		"min":[0.061680108308792117,
		-0.37663978338241579],
		"max":[0.9383199214935303,
		1.3766398429870606]
	}],
	"bufferViews":[{
		"buffer":0,
		"byteOffset":0,
		"byteLength":60,
		"target":34963
	},
	{
		"buffer":0,
		"byteOffset":60,
		"byteLength":960,
		"target":34962,
		"byteStride":32
	},
	{
		"buffer":1,
		"byteOffset":0,
		"byteLength":48,
		"target":34963
	},
	{
		"buffer":1,
		"byteOffset":48,
		"byteLength":768,
		"target":34962,
		"byteStride":32
	},
	{
		"buffer":2,
		"byteOffset":0,
		"byteLength":12,
		"target":34963
	},
	{
		"buffer":2,
		"byteOffset":12,
		"byteLength":192,
		"target":34962,
		"byteStride":32
	}],
	"buffers":[{
		"uri":"data:application/octet-stream;base64,",
		"byteLength":1020
	},
	{
		"uri":"data:application/octet-stream;base64,",
		"byteLength":816
	},
	{
		"uri":"data:application/octet-stream;base64,",
		"byteLength":204
	}],
	"images":[{
		"uri":"data:image/png;base64,"
	},
	{
		"uri":"data:image/png;base64,"
	},
	{
		"uri":"data:image/png;base64,"
	},
	{
		"uri":"data:image/png;base64,"
	},
	{
		"uri":"data:image/png;base64,"
	},
	{
		"uri":"data:image/png;base64,"
	}],
	"samplers":[{
		"magFilter":9729,
		"minFilter":9729,
		"wrapS":10497,
		"wrapT":10497
	},
	{
		"magFilter":9729,
		"minFilter":9729,
		"wrapS":10497,
		"wrapT":10497
	},
	{
		"magFilter":9729,
		"minFilter":9729,
		"wrapS":10497,
		"wrapT":10497
	},
	{
		"magFilter":9729,
		"minFilter":9729,
		"wrapS":10497,
		"wrapT":10497
	},
	{
		"magFilter":9729,
		"minFilter":9729,
		"wrapS":10497,
		"wrapT":10497
	},
	{
		"magFilter":9729,
		"minFilter":9729,
		"wrapS":10497,
		"wrapT":10497
	}],
	"materials":[{
		"pbrMetallicRoughness":{
			"baseColorTexture":{
				"index":0
			},
			"baseColorFactor":[1.0,
			1.0,
			1.0,
			1.0],
			"metallicRoughnessTexture":{
				"index":1
			},
			"metallicFactor":0.0,
			"roughnessFactor":1.0
		},
		"normalTexture":{
			"index":2,
			"scale":1.0
		},
		"emissiveFactor":[0.0,
		0.0,
		0.0],
		"alphaMode":"OPAQUE",
		"doubleSided":false,
		"name":"Concrete"
	},
	{
		"pbrMetallicRoughness":{
			"baseColorTexture":{
				"index":3
			},
			"baseColorFactor":[1.0,
			1.0,
			1.0,
			1.0],
			"metallicRoughnessTexture":{
				"index":4
			},
			"metallicFactor":0.0,
			"roughnessFactor":1.0
		},
		"normalTexture":{
			"index":5,
			"scale":1.0
		},
		"emissiveFactor":[0.0,
		0.0,
		0.0],
		"alphaMode":"OPAQUE",
		"doubleSided":false,
		"name":"RS Standard"
	}]
}