<svg width="427" height="100" viewBox="0 0 427 100" fill="none" xmlns="http://www.w3.org/2000/svg">
<path d="M112.878 55.5992H109.122H65.2361C63.0616 55.5992 61.8755 55.9921 62.2708 58.5462V66.0118H112.878V78.389H110.111H33.0134C29.6528 78.5855 29.6528 78.5855 29.6528 75.6385V25.5403V22.3969H112.681V33.7918H105.366H62.2708V43.6149H112.681V55.7957L112.878 55.5992ZM355.833 21.0216H380.346C382.125 21.0216 384.102 21.611 385.486 22.5933C394.382 27.8978 398.336 36.1493 399.126 46.169C399.719 54.6169 398.731 63.0648 393.196 70.1375C391.219 72.6916 388.451 74.8527 385.684 76.8173C384.072 77.7696 382.221 78.2466 380.346 78.1925H331.716C329.376 78.3271 327.063 77.6308 325.192 76.2279C314.913 67.9764 311.157 57.1709 312.54 44.4008C313.133 37.721 315.308 31.8271 320.052 26.7191C323.611 22.9863 327.762 20.6287 333.495 20.8252C340.809 21.4145 348.321 21.0216 355.833 21.0216ZM346.344 33.5953V65.2259L347.333 65.6189H381.928C382.521 65.6189 383.509 65.0295 383.905 64.4401C390.824 57.3674 391.021 42.8291 384.498 35.5599C383.707 34.5776 381.928 33.5953 380.544 33.5953H346.344ZM158.544 21.611H185.824C188.987 21.4145 191.755 22.3969 194.325 24.3615C200.848 29.2731 204.209 36.1493 205.197 43.8114C206.186 51.4735 205.79 58.9391 202.43 66.2083C200.848 69.9411 198.476 73.0845 194.918 75.442C192.32 77.2725 189.205 78.2357 186.022 78.1925H129.286C126.123 78.1925 126.123 78.1925 126.123 75.2456V24.165C126.123 22.2004 126.716 21.611 128.891 21.611H158.544ZM158.544 66.0118H185.824C188.789 66.0118 190.371 64.833 191.755 62.6719C195.708 57.1709 196.301 50.8841 195.115 44.4008C194.325 41.2574 193.138 38.3104 191.162 35.3635C190.569 34.7741 189.58 34.1847 188.789 34.1847H160.125C158.939 34.1847 158.346 34.3811 158.346 35.7564V66.0118H158.544ZM303.051 65.8153V78.5855H295.342H236.827C234.85 78.5855 232.873 77.7996 231.292 76.6208C227.966 74.2942 225.185 71.282 223.138 67.7898C221.091 64.2975 219.827 60.4074 219.431 56.3851C217.849 45.9725 219.826 36.5422 226.745 28.2908C227.931 26.9155 229.513 25.5403 231.094 24.3615C233.466 22.3969 236.036 21.611 239.001 21.611H303.051V34.1847L256.991 33.7918H254.223V66.0118H303.051V65.8153Z" fill="#F5F5F5"/>
<path d="M405.057 81.1395C403.379 81.1395 401.77 80.4771 400.584 79.2981C399.398 78.1191 398.731 76.52 398.731 74.8527C398.731 73.1853 399.398 71.5862 400.584 70.4072C401.77 69.2282 403.379 68.5658 405.057 68.5658C406.735 68.5658 408.344 69.2282 409.53 70.4072C410.716 71.5862 411.383 73.1853 411.383 74.8527C411.383 76.52 410.716 78.1191 409.53 79.2981C408.344 80.4771 406.735 81.1395 405.057 81.1395ZM405.057 69.3517C403.589 69.3517 402.181 69.9312 401.143 70.9629C400.105 71.9945 399.522 73.3937 399.522 74.8527C399.522 76.3116 400.105 77.7108 401.143 78.7424C402.181 79.7741 403.589 80.3536 405.057 80.3536C406.321 80.1129 407.462 79.4418 408.282 78.4557C409.102 77.4696 409.551 76.2303 409.551 74.9509C409.551 73.6715 409.102 72.4322 408.282 71.4461C407.462 70.46 406.321 69.7888 405.057 69.5481V69.3517Z" fill="#F5F5F5"/>
<path d="M403.673 75.6385V79.1749H402.289V70.7269H404.662C405.848 70.7269 406.638 70.7269 407.034 71.3163C407.429 71.9057 407.825 72.2986 407.825 73.281C407.825 74.2633 407.429 74.8527 406.243 75.2456L408.615 79.1749H407.034L405.057 75.835H403.673V75.6385ZM403.673 74.6562H404.662C405.255 74.6562 405.65 74.6562 406.045 74.2633C406.441 73.8703 406.441 73.6739 406.441 73.281C406.441 72.6916 406.441 72.2986 406.045 72.1022L404.662 71.9057H403.673V74.6562Z" fill="#F5F5F5"/>
</svg>
